<svg width="70" height="70" viewBox="0 0 70 70" fill="none" xmlns="http://www.w3.org/2000/svg">
<path d="M61.25 46.6665V23.3331C61.249 22.3102 60.9789 21.3055 60.467 20.4199C59.9551 19.5342 59.2192 18.7988 58.3333 18.2873L37.9167 6.62063C37.0299 6.10865 36.024 5.83911 35 5.83911C33.976 5.83911 32.9701 6.10865 32.0833 6.62063L11.6667 18.2873C10.7808 18.7988 10.0449 19.5342 9.53301 20.4199C9.02108 21.3055 8.75105 22.3102 8.75 23.3331V46.6665C8.75105 47.6894 9.02108 48.6941 9.53301 49.5797C10.0449 50.4654 10.7808 51.2008 11.6667 51.7123L32.0833 63.379C32.9701 63.8909 33.976 64.1605 35 64.1605C36.024 64.1605 37.0299 63.8909 37.9167 63.379L58.3333 51.7123C59.2192 51.2008 59.9551 50.4654 60.467 49.5797C60.9789 48.6941 61.249 47.6894 61.25 46.6665Z" stroke="#FF3C3C" stroke-width="2" stroke-linecap="round" stroke-linejoin="round"/>
<path d="M21.875 12.2791L35 19.8624L48.125 12.2791" stroke="#FF3C3C" stroke-width="2" stroke-linecap="round" stroke-linejoin="round"/>
<path d="M21.875 57.7208V42.5833L8.75 35" stroke="#FF3C3C" stroke-width="2" stroke-linecap="round" stroke-linejoin="round"/>
<path d="M61.25 35L48.125 42.5833V57.7208" stroke="#FF3C3C" stroke-width="2" stroke-linecap="round" stroke-linejoin="round"/>
<path d="M9.5376 20.2999L35.0001 35.0291L60.4626 20.2999" stroke="#FF3C3C" stroke-width="2" stroke-linecap="round" stroke-linejoin="round"/>
<path d="M35 64.4V35" stroke="#FF3C3C" stroke-width="2" stroke-linecap="round" stroke-linejoin="round"/>
</svg>
